<!-- icon666.com - MILLIONS vector ICONS FREE --><svg id="Capa_1" enable-background="new 0 0 512 512" viewBox="0 0 512 512" xmlns="http://www.w3.org/2000/svg"><g><g id="Page-1_12_"><g id="_x30_13---Chat-Bot"><path id="Shape_94_" d="m494.933 179.421v-42.889c-.052-47.107-38.226-85.282-85.333-85.333h-307.2c-47.107.052-85.282 38.226-85.333 85.333v42.889c-10.706 7.991-17.028 20.553-17.067 33.912v34.133c.028 23.552 19.114 42.638 42.667 42.667h8.533v42.667c.038 32.974 26.759 59.696 59.733 59.733v59.733c0 3.148 1.732 6.04 4.508 7.525s6.143 1.321 8.762-.426l98.133-65.399c1.389-.93 3.022-1.429 4.693-1.434h174.037c32.974-.038 59.696-26.759 59.733-59.733v-42.667h8.533c23.552-.028 42.638-19.114 42.667-42.667v-34.133c-.038-13.358-6.36-25.92-17.066-33.911zm-460.8-42.888c.042-37.685 30.582-68.224 68.267-68.267h307.2c37.685.042 68.224 30.582 68.267 68.267v34.987c-2.809-.57-5.667-.856-8.533-.853h-8.534v-25.6c-.038-32.974-26.759-59.696-59.733-59.733h-290.134c-32.974.036-59.695 26.758-59.733 59.732v25.6h-8.533c-2.866-.003-5.725.283-8.533.853v-34.986zm8.534 136.533c-14.138 0-25.6-11.462-25.6-25.6v-34.133c0-14.138 11.462-25.6 25.6-25.6h8.533v85.333zm401.066 59.733c-.028 23.552-19.114 42.638-42.667 42.667h-174.037c-5.051-.015-9.993 1.47-14.199 4.267l-84.83 56.584v-43.785c0-9.426-7.641-17.067-17.067-17.067-23.552-.028-42.638-19.114-42.667-42.667v-187.732c.028-23.552 19.114-42.638 42.667-42.667h290.133c23.552.028 42.638 19.114 42.667 42.667zm51.2-85.333c0 14.138-11.462 25.6-25.6 25.6h-8.533v-85.333h8.533c14.138 0 25.6 11.462 25.6 25.6z" fill="#000000" style="fill: rgb(255, 255, 255);"></path><path id="Shape_93_" d="m401.067 119.466h-290.134c-14.138 0-25.6 11.462-25.6 25.6v187.733c0 14.138 11.462 25.6 25.6 25.6h290.133c14.138 0 25.6-11.462 25.6-25.6v-187.733c.001-14.138-11.461-25.6-25.599-25.6zm8.533 213.333c0 4.713-3.821 8.533-8.533 8.533h-290.134c-4.713 0-8.533-3.82-8.533-8.533v-187.733c0-4.713 3.821-8.533 8.533-8.533h290.133c4.713 0 8.533 3.821 8.533 8.533v187.733z" fill="#000000" style="fill: rgb(255, 255, 255);"></path><path id="Shape_92_" d="m162.133 187.733c-18.851 0-34.133 15.282-34.133 34.133s15.282 34.133 34.133 34.133 34.133-15.282 34.133-34.133-15.281-34.133-34.133-34.133zm0 51.2c-9.426 0-17.067-7.641-17.067-17.067s7.641-17.067 17.067-17.067 17.067 7.641 17.067 17.067-7.641 17.067-17.067 17.067z" fill="#000000" style="fill: rgb(255, 255, 255);"></path><path id="Shape_91_" d="m349.867 187.733c-18.851 0-34.133 15.282-34.133 34.133s15.282 34.133 34.133 34.133 34.133-15.282 34.133-34.133-15.282-34.133-34.133-34.133zm0 51.2c-9.426 0-17.067-7.641-17.067-17.067s7.641-17.067 17.067-17.067 17.067 7.641 17.067 17.067c-.001 9.426-7.642 17.067-17.067 17.067z" fill="#000000" style="fill: rgb(255, 255, 255);"></path><path id="Shape_90_" d="m294.033 257.023c-4.164-2.122-9.26-.53-11.477 3.584-5.946 8.651-16.102 13.416-26.556 12.459-10.448.958-20.598-3.8-26.547-12.442-2.232-3.989-7.21-5.511-11.291-3.452s-5.815 6.967-3.933 11.132c8.759 14.501 24.865 22.918 41.771 21.828 16.912 1.115 33.036-7.286 41.813-21.786 2.064-4.171.377-9.227-3.78-11.323z" fill="#000000" style="fill: rgb(255, 255, 255);"></path></g></g></g></svg>